<svg width="32" height="33" viewBox="0 0 32 33" fill="none" xmlns="http://www.w3.org/2000/svg">
<path d="M21.6183 17.4824C21.801 17.4066 22.0021 17.3867 22.1961 17.4252C22.3901 17.4637 22.5684 17.5589 22.7083 17.6987L26.7083 21.6987C26.8013 21.7916 26.875 21.9019 26.9253 22.0233C26.9757 22.1447 27.0016 22.2748 27.0016 22.4062C27.0016 22.5376 26.9757 22.6677 26.9253 22.7891C26.875 22.9105 26.8013 23.0208 26.7083 23.1137L22.7083 27.1137C22.5684 27.2537 22.3902 27.3491 22.1961 27.3877C22.002 27.4264 21.8008 27.4066 21.618 27.3308C21.4352 27.2551 21.2789 27.1268 21.1691 26.9622C21.0592 26.7976 21.0006 26.6041 21.0008 26.4062V23.4062H6.00079C5.73557 23.4062 5.48122 23.3008 5.29368 23.1133C5.10614 22.9258 5.00079 22.6714 5.00079 22.4062C5.00079 22.141 5.10614 21.8866 5.29368 21.6991C5.48122 21.5116 5.73557 21.4062 6.00079 21.4062H21.0008V18.4062C21.0008 18.2084 21.0595 18.0151 21.1694 17.8507C21.2793 17.6862 21.4355 17.5581 21.6183 17.4824ZM9.29329 5.69869L5.29329 9.69869C5.20031 9.79157 5.12655 9.90186 5.07623 10.0233C5.0259 10.1447 5 10.2748 5 10.4062C5 10.5376 5.0259 10.6677 5.07623 10.7891C5.12655 10.9105 5.20031 11.0208 5.29329 11.1137L9.29329 15.1137C9.43314 15.2537 9.6114 15.3491 9.80548 15.3877C9.99956 15.4264 10.2008 15.4066 10.3836 15.3308C10.5664 15.2551 10.7226 15.1268 10.8325 14.9622C10.9424 14.7976 11.0009 14.6041 11.0008 14.4062V11.4062H26.0008C26.266 11.4062 26.5204 11.3008 26.7079 11.1133C26.8954 10.9258 27.0008 10.6714 27.0008 10.4062C27.0008 10.141 26.8954 9.88662 26.7079 9.69909C26.5204 9.51155 26.266 9.40619 26.0008 9.40619H11.0008V6.40619C11.0009 6.2083 10.9424 6.01481 10.8325 5.85021C10.7226 5.68562 10.5664 5.55733 10.3836 5.48157C10.2008 5.40582 9.99956 5.38601 9.80548 5.42467C9.6114 5.46332 9.43314 5.55868 9.29329 5.69869Z" fill="#120309"/>
</svg>
