<svg width="90" height="93" viewBox="0 0 90 93" fill="none" xmlns="http://www.w3.org/2000/svg">
<path d="M29.3495 90.5961C29.5997 90.5823 29.836 90.4989 30.0584 90.346C30.2762 90.192 30.652 89.7854 31.1859 89.1264L34.1796 85.4262C35.0861 84.3061 35.8072 83.5853 36.343 83.2638C36.8731 82.9458 37.4403 82.8644 38.0446 83.0197C38.4127 83.1143 38.7424 83.2552 39.0339 83.4424L38.5915 85.1971L37.8555 85.008C37.9487 84.4653 37.7932 84.142 37.3888 84.0381C36.8481 83.8992 36.2361 84.2157 35.5528 84.9878L36.5328 90.4565C36.685 91.3113 36.8089 91.856 36.9046 92.0907C36.9957 92.3241 37.1581 92.5149 37.3917 92.6628L37.3067 93L34.3829 92.2486L34.4679 91.9115C34.9168 91.9731 35.1811 91.8456 35.2609 91.5291C35.3349 91.2355 35.3142 90.7515 35.1988 90.077L34.538 86.1924L32.3735 89.0213C31.9115 89.6255 31.6372 90.0996 31.5505 90.4437C31.4487 90.8474 31.5874 91.1224 31.9666 91.2687L31.8816 91.6059L29.2645 90.9333L29.3495 90.5961Z" fill="white"/>
<path d="M28.3686 80.2238L27.6623 81.4764L26.9961 81.0935C27.0588 80.6284 27.0384 80.2626 26.9351 79.9962C26.8254 79.7316 26.5831 79.4915 26.2082 79.276C25.2793 78.742 24.5874 78.8781 24.1328 79.6844C23.917 80.067 23.855 80.4208 23.9468 80.746C24.0346 81.0688 24.3881 81.4082 25.0074 81.7642L25.8813 82.2666L25.5508 82.8528L24.6524 82.3364C24.0697 82.0014 23.6229 81.8753 23.3119 81.958C22.9986 82.0448 22.7422 82.2651 22.5427 82.6189C22.1646 83.2894 22.3626 83.8472 23.1367 84.2922C23.8864 84.7232 24.5961 84.6654 25.2657 84.1189L25.8524 84.4562L25.1948 85.6224C24.2157 85.3973 23.4022 85.0985 22.7544 84.7261C21.9966 84.2905 21.5103 83.8611 21.2957 83.4381C21.077 83.0128 21.1079 82.5512 21.3886 82.0535C21.776 81.3665 22.4855 81.137 23.5169 81.3649L23.5517 81.3032C22.7509 80.5705 22.5721 79.8113 23.0152 79.0256C23.6485 77.9026 24.8126 77.8282 26.5076 78.8026C27.1635 79.1797 27.7839 79.6534 28.3686 80.2238Z" fill="white"/>
<path d="M17.6019 72.0709L17.3581 72.3168C17.1029 72.166 16.8891 72.104 16.7167 72.1307C16.541 72.154 16.2922 72.3279 15.9705 72.6524L14.8111 73.8216L16.9532 75.9869L18.1126 74.8177C18.4144 74.5132 18.5837 74.269 18.6202 74.0849C18.6535 73.9042 18.5906 73.6765 18.4316 73.4019L18.6754 73.156L20.6088 75.1103L20.365 75.3562C20.0899 75.1987 19.8645 75.1383 19.6888 75.175C19.5064 75.2117 19.266 75.3806 18.9674 75.6817L16.4099 78.261C16.1081 78.5655 15.9405 78.8114 15.9073 78.9988C15.8674 79.1863 15.9303 79.4072 16.0959 79.6617L15.8521 79.9076L13.9286 77.9634L14.1724 77.7175C14.4177 77.8783 14.6331 77.9421 14.8188 77.9087C15.0012 77.8787 15.2466 77.7081 15.5551 77.397L16.5104 76.4335L14.3683 74.2683L13.413 75.2317C13.0846 75.5629 12.912 75.8206 12.8953 76.0047C12.8754 76.1854 12.9399 76.3913 13.0889 76.6224L12.8451 76.8682L10.9267 74.9291L11.1705 74.6832C11.4323 74.8474 11.656 74.9094 11.8417 74.8694C12.0208 74.8293 12.2579 74.6604 12.5531 74.3626L15.1106 71.7833C15.4125 71.4789 15.5817 71.2346 15.6183 71.0506C15.6515 70.8698 15.592 70.6455 15.4396 70.3776L15.6834 70.1318L17.6019 72.0709Z" fill="white"/>
<path d="M10.1858 63.4475L10.2127 63.5544C10.7758 63.7087 11.2211 63.9023 11.5485 64.1352C11.8736 64.364 12.1344 64.6562 12.3309 65.0117C12.5046 65.3258 12.5983 65.6362 12.6121 65.9429C12.6218 66.2518 12.5536 66.5315 12.4074 66.7819C12.2572 67.0346 12.0387 67.2417 11.7521 67.4032C11.1544 67.74 10.5293 67.7019 9.87687 67.2889C9.21804 66.8741 8.53186 66.0844 7.81832 64.9197L7.41915 65.1447C6.99336 65.3846 6.68049 65.6151 6.48054 65.8362C6.28059 66.0573 6.17242 66.289 6.15604 66.5313C6.13965 66.7736 6.21371 67.0436 6.37821 67.3412C6.55643 67.6637 6.7843 67.8768 7.06183 67.9806C7.33708 68.0803 7.66998 68.0852 8.06053 67.9952L8.50949 68.8075L7.71114 69.2573C7.2871 68.9759 6.95488 68.7294 6.71448 68.5179C6.47 68.3087 6.24803 68.0868 6.04858 67.8522C5.84503 67.62 5.66786 67.3675 5.51706 67.0946C5.29086 66.6854 5.17473 66.3199 5.16865 65.998C5.15848 65.6785 5.25218 65.3818 5.44975 65.1078C5.64732 64.8338 6.01427 64.5458 6.5506 64.2436L8.68772 63.0394C8.99068 62.8687 9.20448 62.7455 9.32911 62.6698C9.44965 62.5965 9.55743 62.5195 9.65246 62.4389C9.74748 62.3582 9.81632 62.2788 9.85898 62.2005C9.89754 62.1246 9.91763 62.0346 9.91926 61.9307C9.9186 61.8227 9.89256 61.6639 9.84116 61.4543L10.1421 61.2848L11.0811 62.9837L10.1858 63.4475ZM8.3219 64.636C8.7939 65.4705 9.25174 66.0365 9.6954 66.3341C10.1391 66.6316 10.5758 66.6593 11.0057 66.4171C11.2391 66.2856 11.397 66.1342 11.4796 65.963C11.5621 65.7918 11.59 65.6189 11.5633 65.4442C11.5325 65.2719 11.4622 65.0865 11.3525 64.8881C11.1972 64.607 10.9891 64.3908 10.7283 64.2396C10.4653 64.0842 10.1939 64.0013 9.9143 63.9908C9.63467 63.9803 9.39251 64.0327 9.1878 64.1481L8.3219 64.636Z" fill="white"/>
<path d="M2.73655 53.4985C2.30751 53.7547 2.00806 53.9974 1.8382 54.2264C1.66834 54.4554 1.63004 54.7557 1.7233 55.1274L1.89428 55.8089L6.16197 54.7173C6.69827 54.5801 7.0293 54.4344 7.15504 54.2802C7.27963 54.1213 7.32884 53.8548 7.30266 53.4806L7.63671 53.3952L8.37762 56.3481L8.04357 56.4335C7.88098 56.0747 7.70237 55.864 7.50772 55.8015C7.30738 55.7355 6.95724 55.7665 6.4573 55.8943L2.18961 56.9859L2.35886 57.6605C2.45558 58.0459 2.64625 58.295 2.93089 58.4078C3.21098 58.5217 3.57221 58.5832 4.01458 58.5921L4.17865 59.246L2.29023 59.729L0.685786 53.3345L2.57421 52.8515L2.73655 53.4985Z" fill="white"/>
<path d="M6.72194 47.5658L6.3774 47.5588C6.2992 47.2494 6.18609 47.0435 6.03808 46.9411C5.88548 46.8338 5.59824 46.7758 5.17637 46.7672L1.56227 46.6933C1.1357 46.6846 0.843984 46.7331 0.687111 46.8388C0.525646 46.9396 0.411454 47.1385 0.344534 47.4354L0 47.4284L0.0558246 44.6455L0.400359 44.6525C0.454841 44.9756 0.565414 45.1909 0.732077 45.2985C0.89874 45.4061 1.18364 45.464 1.58676 45.4722L2.88756 45.4988C2.84213 44.9582 2.82454 44.4322 2.8348 43.9211C2.86992 42.17 3.53671 41.3077 4.83516 41.3342C5.49142 41.3476 5.98623 41.5779 6.31959 42.0251C6.65295 42.4722 6.80838 43.2566 6.78588 44.3783L6.72194 47.5658ZM3.44303 45.5102L6.17118 45.566C6.19525 45.3013 6.21089 44.9892 6.2181 44.6295C6.23368 43.8533 6.12688 43.3327 5.89773 43.0676C5.66398 42.7976 5.30101 42.6576 4.80882 42.6476C3.88068 42.6286 3.40503 43.1965 3.38187 44.3513C3.37408 44.7394 3.39447 45.1257 3.44303 45.5102Z" fill="white"/>
<path d="M10.6574 28.4841C10.2309 29.3696 9.6477 29.9202 8.90775 30.1359C8.16565 30.3453 7.28862 30.2016 6.27669 29.7048C5.58098 29.3632 5.05123 28.9531 4.68743 28.4744C4.32568 27.9915 4.13137 27.4803 4.10451 26.9407C4.07342 26.399 4.18911 25.8558 4.45155 25.3109C4.89033 24.3998 5.48602 23.8396 6.23861 23.63C6.98698 23.4185 7.85238 23.5539 8.83481 24.0362C9.53473 24.3798 10.0686 24.7867 10.4365 25.2569C10.8044 25.727 11.005 26.2361 11.0383 26.784C11.0673 27.3299 10.9403 27.8966 10.6574 28.4841ZM6.72515 28.4326C7.59373 28.8591 8.32867 29.0489 8.92996 29.0019C9.52909 28.9487 9.95373 28.6624 10.2039 28.143C10.3412 27.8578 10.3907 27.582 10.3521 27.3157C10.3093 27.0473 10.2017 26.7944 10.0293 26.5571C9.85888 26.3155 9.63522 26.0926 9.3583 25.8882C9.07715 25.6817 8.77004 25.4967 8.43694 25.3331C7.81713 25.0288 7.2689 24.8465 6.79224 24.7862C6.31764 24.7216 5.92806 24.7619 5.6235 24.9072C5.31472 25.0504 5.08652 25.2752 4.9389 25.5817C4.6908 26.0968 4.72148 26.6014 5.03093 27.0955C5.34243 27.5853 5.90717 28.031 6.72515 28.4326Z" fill="white"/>
<path d="M21.625 14.6296L21.4107 14.3571C21.5881 14.1182 21.6735 13.9108 21.6668 13.7348C21.6638 13.5559 21.521 13.2866 21.2382 12.927L20.2195 11.6311L17.8453 13.5338L18.8641 14.8296C19.1293 15.167 19.3504 15.3645 19.5274 15.4221C19.7015 15.476 19.9326 15.4389 20.2209 15.3106L20.4351 15.5831L18.2924 17.3004L18.0781 17.0278C18.2643 16.7698 18.3494 16.5506 18.3332 16.3701C18.3178 16.183 18.179 15.9226 17.9166 15.5889L15.6693 12.7302C15.404 12.3928 15.1811 12.1968 15.0004 12.1421C14.8205 12.0808 14.596 12.1187 14.3267 12.2559L14.1125 11.9834L16.2443 10.275L16.4585 10.5475C16.2724 10.7753 16.1852 10.9841 16.1969 11.1742C16.2057 11.3605 16.3457 11.6261 16.6167 11.9709L17.4562 13.0388L19.8304 11.1361L18.9909 10.0683C18.7023 9.70122 18.4684 9.49886 18.2892 9.4612C18.1136 9.4206 17.9036 9.46193 17.6593 9.58519L17.4451 9.31267L19.5714 7.60868L19.7856 7.8812C19.5943 8.12517 19.5078 8.34256 19.5261 8.53337C19.5452 8.71752 19.6844 8.9746 19.9438 9.30459L22.1912 12.1633C22.4564 12.5007 22.6776 12.6982 22.8545 12.7558C23.0286 12.8097 23.2561 12.7755 23.537 12.6531L23.7512 12.9256L21.625 14.6296Z" fill="white"/>
<path d="M30.9536 8.17042L30.8454 8.1852C30.6296 8.73256 30.3884 9.15722 30.122 9.45917C29.8599 9.7593 29.5428 9.98771 29.1706 10.1444C28.8417 10.2829 28.5256 10.3416 28.2223 10.3206C27.9172 10.2952 27.6497 10.1949 27.42 10.0198C27.1884 9.8404 27.0094 9.59776 26.8831 9.29192C26.6196 8.65403 26.7282 8.03133 27.2087 7.4238C27.6918 6.81008 28.5469 6.21155 29.7741 5.62819L29.5981 5.20221C29.4105 4.74782 29.2192 4.40777 29.0244 4.18207C28.8296 3.95636 28.6139 3.82152 28.3773 3.77753C28.1407 3.73354 27.8666 3.77713 27.555 3.90832C27.2175 4.05043 26.9818 4.25479 26.8481 4.52137C26.7187 4.78614 26.6761 5.11952 26.7202 5.52151L25.8699 5.87954L25.518 5.02756C25.8432 4.6342 26.1235 4.32897 26.359 4.11187C26.5926 3.8904 26.8362 3.69297 27.0896 3.51956C27.3413 3.34179 27.61 3.19277 27.8956 3.07252C28.324 2.89214 28.6969 2.8172 29.0143 2.84769C29.3298 2.87381 29.6112 3.00154 29.8583 3.23087C30.1054 3.4602 30.3472 3.86105 30.5836 4.4334L31.5256 6.71406C31.6591 7.03738 31.756 7.26584 31.8163 7.39946C31.8747 7.52872 31.9382 7.64558 32.0068 7.75007C32.0754 7.85456 32.1457 7.93264 32.2178 7.98433C32.2882 8.03164 32.3744 8.06202 32.4765 8.07547C32.5829 8.08709 32.7421 8.07903 32.9541 8.05129L33.0868 8.37242L31.3083 9.12126L30.9536 8.17042ZM29.996 6.16559C29.1212 6.54419 28.5122 6.9391 28.169 7.35032C27.8257 7.76153 27.7489 8.19652 27.9383 8.65527C28.0412 8.90431 28.1722 9.07997 28.3313 9.18224C28.4903 9.28451 28.6573 9.33217 28.8322 9.32519C29.0054 9.31385 29.1958 9.26445 29.4035 9.177C29.6977 9.0531 29.9341 8.86896 30.1125 8.62457C30.2953 8.37836 30.4078 8.1156 30.4499 7.8363C30.492 7.55699 30.4679 7.30811 30.3777 7.08965L29.996 6.16559Z" fill="white"/>
<path d="M40.9312 0.064337L41.1495 1.53191L40.2663 1.66586C40.1422 1.37353 40.0093 1.14956 39.8676 0.993929C39.7253 0.833619 39.5724 0.729957 39.4089 0.682942C39.2455 0.635927 39.0501 0.629647 38.8229 0.664102C38.4984 0.713322 38.2266 0.862246 38.0076 1.11087C37.7885 1.3595 37.6369 1.7104 37.5526 2.16358C37.4729 2.61605 37.4794 3.15359 37.572 3.7762C37.6312 4.17411 37.7134 4.53503 37.8184 4.85896C37.9228 5.17821 38.0597 5.44467 38.2289 5.65834C38.3982 5.87202 38.6039 6.02751 38.8459 6.12484C39.088 6.22216 39.3736 6.24586 39.7028 6.19594C40.0227 6.14742 40.3101 6.03922 40.5648 5.87134C40.8242 5.70276 41.0786 5.4368 41.328 5.07348L41.7933 5.4768C41.5959 5.77481 41.4175 6.01009 41.2583 6.18263C41.0983 6.35049 40.9214 6.4994 40.7274 6.62935C40.5373 6.75391 40.3434 6.85273 40.1456 6.9258C39.9532 7.00285 39.7388 7.0593 39.5023 7.09516C38.626 7.22806 37.9125 7.03708 37.3618 6.52224C36.8104 6.00272 36.4522 5.18822 36.2872 4.07876C36.1841 3.38594 36.2227 2.753 36.4029 2.17996C36.5825 1.60224 36.8848 1.13275 37.3099 0.771496C37.735 0.410239 38.2536 0.183203 38.8656 0.0903868C39.2458 0.0327284 39.5993 0.00304679 39.9262 0.00134198C40.257 -0.00574725 40.592 0.0152511 40.9312 0.064337Z" fill="white"/>
<path d="M51.9689 6.93463L52.3269 5.53924L53.069 5.73332C53.1288 6.19883 53.243 6.54655 53.4116 6.77647C53.586 7.003 53.8819 7.17087 54.2995 7.28007C55.3343 7.55071 55.967 7.23693 56.1974 6.33876C56.3067 5.91258 56.275 5.55466 56.1023 5.265C55.9342 4.97652 55.5052 4.74207 54.8153 4.56165L53.8417 4.30704L54.0093 3.65402L55.0101 3.91576C55.6591 4.0855 56.123 4.08947 56.4018 3.92767C56.6819 3.76128 56.8724 3.48104 56.9735 3.08695C57.1651 2.33999 56.8298 1.85375 55.9674 1.62822C55.1323 1.40981 54.4622 1.65265 53.957 2.35674L53.3035 2.18581L53.6368 0.886663C54.6401 0.845879 55.5026 0.919852 56.2242 1.10858C57.0684 1.32936 57.6488 1.61563 57.9654 1.96738C58.2866 2.32031 58.376 2.77402 58.2337 3.32851C58.0374 4.09379 57.4119 4.50235 56.3574 4.55418L56.3397 4.62291C57.3021 5.11911 57.6711 5.80485 57.4465 6.68011C57.1256 7.93115 56.0211 8.30977 54.133 7.81598C53.4022 7.62488 52.6809 7.33109 51.9689 6.93463Z" fill="white"/>
<path d="M64.7799 10.9567L64.7008 10.8808C64.1428 11.0534 63.6639 11.1293 63.2639 11.1085C62.868 11.0899 62.4931 10.9831 62.1391 10.7882C61.8263 10.6158 61.5831 10.4037 61.4095 10.1517C61.2382 9.89551 61.1482 9.62216 61.1396 9.33164C61.1333 9.03696 61.2087 8.74417 61.3659 8.45329C61.6938 7.84658 62.2427 7.54232 63.0128 7.54052C63.7892 7.53683 64.7868 7.83558 66.0054 8.43679L66.2244 8.03163C66.4579 7.59945 66.6009 7.23603 66.6533 6.94135C66.7057 6.64668 66.6749 6.39242 66.5608 6.17857C66.4466 5.96473 66.2414 5.77618 65.9451 5.61294C65.6241 5.4361 65.3187 5.37845 65.0291 5.44C64.7436 5.50382 64.4594 5.67889 64.1765 5.96523L63.3677 5.51972L63.8056 4.7094C64.313 4.71928 64.7242 4.74898 65.0393 4.7985C65.3566 4.84387 65.6615 4.9121 65.9541 5.00318C66.249 5.0901 66.5322 5.20839 66.8039 5.35802C67.2113 5.58248 67.5026 5.82921 67.6777 6.09822C67.855 6.36308 67.9325 6.66457 67.91 7.00269C67.8875 7.34082 67.7292 7.78207 67.435 8.32644L66.2628 10.4956C66.0966 10.8031 65.9808 11.0224 65.9153 11.1535C65.8521 11.2804 65.8015 11.4036 65.7637 11.523C65.7259 11.6424 65.7096 11.7466 65.7149 11.8358C65.7224 11.9208 65.7528 12.0077 65.8063 12.0965C65.8639 12.1875 65.9698 12.3079 66.124 12.4575L65.9589 12.7629L64.2673 11.8311L64.7799 10.9567ZM65.7292 8.94792C64.8892 8.49598 64.203 8.26356 63.6705 8.25066C63.1381 8.23776 62.7539 8.44947 62.5182 8.8858C62.3902 9.12266 62.3365 9.33573 62.357 9.52501C62.3776 9.71429 62.4453 9.87562 62.5601 10.009C62.6772 10.1382 62.8346 10.2572 63.0321 10.3661C63.312 10.5202 63.6022 10.5911 63.9026 10.5787C64.2072 10.5685 64.4806 10.4926 64.7227 10.3509C64.9648 10.2093 65.142 10.0346 65.2543 9.82681L65.7292 8.94792Z" fill="white"/>
<path d="M77.0054 22.0721C77.1424 22.2583 77.2642 22.3999 77.3707 22.497C77.4771 22.594 77.5819 22.657 77.6849 22.6859C77.7879 22.7148 77.8948 22.7171 78.0055 22.693C78.1229 22.6699 78.2923 22.6224 78.5139 22.5505L78.8705 23.035L77.1507 24.1746L73.6989 19.4837L73.9699 19.2804C74.4853 19.1474 75.0521 19.0643 75.6702 19.0312C76.2883 18.998 77.065 19.0257 78.0005 19.1142C78.8065 19.1937 79.4051 19.2371 79.7961 19.2446C80.2236 19.2541 80.573 19.2368 80.8442 19.1925C81.122 19.1493 81.3642 19.0856 81.5708 19.0013C81.7813 18.9142 81.9749 18.8043 82.1518 18.6716C82.4341 18.4599 82.6489 18.228 82.7963 17.9759C82.9475 17.7209 83.0153 17.4519 82.9997 17.1687C82.9869 16.8894 82.8756 16.6072 82.6659 16.3222C82.143 15.6117 81.3993 15.4265 80.4348 15.7667L79.9273 15.077L81.0112 14.264C81.564 14.5628 82.0343 14.8765 82.4219 15.2049C82.8162 15.5343 83.1307 15.8585 83.3656 16.1777C83.8857 16.8845 84.1242 17.5341 84.0813 18.1266C84.042 18.7163 83.7308 19.2299 83.1474 19.6675C82.948 19.8171 82.7482 19.9345 82.5481 20.0198C82.3545 20.106 82.1428 20.1675 81.9129 20.2043C81.6895 20.2421 81.4306 20.2594 81.1362 20.2562C80.8418 20.2529 80.5324 20.2373 80.2081 20.2093C79.8875 20.1785 79.3435 20.1178 78.5759 20.0272C77.2882 19.8727 76.2376 19.838 75.4242 19.9233L77.0054 22.0721Z" fill="white"/>
<path d="M82.8485 39.7982L83.1882 39.7396C83.3235 40.0332 83.4753 40.2135 83.6437 40.2805C83.8166 40.3467 84.1064 40.3447 84.5131 40.2744L87.2513 39.8018C87.8428 39.6996 88.2731 39.6422 88.542 39.6294L88.529 39.5524L83.721 38.2933L83.6072 37.6214L87.8588 34.9208L87.847 34.8508C87.5097 34.9379 87.1424 35.0157 86.7449 35.0843L83.7225 35.606C83.3158 35.6763 83.0418 35.7716 82.9005 35.892C82.7638 36.0117 82.6799 36.2327 82.6489 36.555L82.3092 36.6136L81.9193 34.3109L82.2589 34.2523C82.3943 34.5459 82.5461 34.7262 82.7144 34.7932C82.8874 34.8594 83.1772 34.8574 83.5838 34.7872L87.147 34.1721C87.6045 34.0931 87.8927 33.9833 88.0116 33.8427C88.1313 33.7068 88.1963 33.501 88.2067 33.2255L88.5464 33.1669L88.9387 35.4836L84.9706 37.9623L89.5551 39.1231L89.9261 41.3138L89.5864 41.3725C89.4757 41.0842 89.3285 40.9031 89.1448 40.8292C88.9656 40.7544 88.675 40.7518 88.273 40.8212L84.7098 41.4363C84.2847 41.5097 84.0045 41.6109 83.8694 41.7399C83.7351 41.8735 83.6581 42.0933 83.6386 42.3992L83.2989 42.4579L82.8485 39.7982Z" fill="white"/>
<path d="M82.7264 51.2581L83.0675 51.3079C83.1021 51.5952 83.1816 51.8005 83.3061 51.9239C83.4298 52.052 83.7167 52.149 84.1668 52.2147L87.104 52.644L84.3814 49.0821C84.0652 49.0406 83.8351 49.0596 83.6911 49.139C83.5517 49.2191 83.4221 49.3963 83.3022 49.6705L82.9612 49.6207L83.346 46.9362L83.6871 46.986C83.727 47.3028 83.8141 47.5212 83.9485 47.6413C84.0868 47.7667 84.3648 47.8599 84.7824 47.921L88.36 48.4438C88.7822 48.5055 89.0776 48.4937 89.2462 48.4083C89.4187 48.3283 89.5563 48.1451 89.659 47.8588L90 47.9086L89.6152 50.5931L89.2741 50.5433C89.2547 50.2487 89.1762 50.0363 89.0386 49.9062C88.9002 49.7807 88.6176 49.6868 88.1907 49.6244L85.3022 49.2023L88.0338 52.7512C88.5634 52.8238 88.9 52.6243 89.0434 52.1526L89.3844 52.2024L88.9996 54.8869L88.6585 54.837C88.6392 54.5424 88.5607 54.3301 88.423 54.1999C88.29 54.0705 88.0077 53.9742 87.5761 53.9112L83.9986 53.3883C83.5763 53.3266 83.2812 53.3361 83.1133 53.4168C82.9501 53.4982 82.8079 53.6807 82.6867 53.9643L82.3456 53.9144L82.7264 51.2581Z" fill="white"/>
<path d="M79.3174 62.1182L79.6289 62.267C79.5744 62.5604 79.5887 62.7846 79.6717 62.9394C79.7527 63.0986 79.9988 63.2764 80.4099 63.4727L81.8911 64.1803L83.1875 61.414L81.7062 60.7064C81.3206 60.5221 81.0358 60.4437 80.8518 60.471C80.6721 60.5004 80.481 60.6369 80.2786 60.8806L79.9671 60.7318L81.1372 58.235L81.4486 58.3838C81.3946 58.6984 81.4143 58.933 81.5078 59.0877C81.6036 59.2486 81.8422 59.4202 82.2236 59.6024L85.4911 61.1633C85.8768 61.3476 86.1626 61.4239 86.3486 61.3923C86.5368 61.367 86.7216 61.2327 86.903 60.9894L87.2145 61.1382L86.0505 63.6222L85.739 63.4734C85.8062 63.1861 85.793 62.9598 85.6992 62.7945C85.6098 62.6313 85.3679 62.4556 84.9738 62.2673L83.7532 61.6842L82.4569 64.4506L83.6774 65.0337C84.097 65.2341 84.3954 65.3112 84.5727 65.265C84.748 65.223 84.9182 65.0922 85.0833 64.8726L85.3948 65.0214L84.2338 67.499L83.9223 67.3502C83.9871 67.0459 83.9695 66.8123 83.8695 66.6494C83.7717 66.4927 83.5343 66.3243 83.1571 66.1441L79.8895 64.5831C79.5039 64.3989 79.219 64.3204 79.0351 64.3478C78.8553 64.3771 78.6663 64.5094 78.4679 64.7445L78.1564 64.5957L79.3174 62.1182Z" fill="white"/>
<path d="M73.317 70.1818C73.053 69.5977 72.8667 69.0926 72.7583 68.6666C72.6498 68.2406 72.6251 67.8548 72.6842 67.5092C72.7402 67.1671 72.9019 66.8437 73.1693 66.539C73.3404 66.3442 73.556 66.1449 73.8162 65.9413L74.8583 66.8739L74.4431 67.3468C74.2619 67.2606 74.1153 67.2242 74.0032 67.2378C73.8911 67.2513 73.7821 67.3183 73.6764 67.4387C73.5831 67.545 73.5218 67.6577 73.4923 67.7769C73.4563 67.8964 73.4485 68.0445 73.469 68.2209C73.4864 68.401 73.544 68.6423 73.6418 68.9448C73.7364 69.2509 73.873 69.6199 74.0516 70.0516L79.3208 72.1102C79.6609 72.2438 79.9083 72.326 80.0629 72.3568C80.2144 72.3912 80.346 72.3983 80.4577 72.3781C80.5694 72.3578 80.7017 72.2928 80.8546 72.1829L81.1125 72.4137L79.2139 74.5764L78.956 74.3456C79.0636 74.1446 79.1276 73.9931 79.1481 73.8913C79.1721 73.7926 79.1683 73.7006 79.1366 73.6153C79.1085 73.5332 79.0488 73.4513 78.9576 73.3697C78.8628 73.2849 78.7552 73.2076 78.6348 73.1378C78.5113 73.0716 78.3594 73.002 78.179 72.9292L74.7119 71.5154L76.3052 74.8389C76.3927 75.0247 76.4803 75.1854 76.5681 75.3209C76.6563 75.4631 76.7513 75.5797 76.853 75.6707C77.0039 75.8058 77.1553 75.8653 77.3071 75.8493C77.4558 75.8369 77.6432 75.7484 77.8691 75.5838L78.127 75.8145L76.3824 77.8019L76.1245 77.5712C76.2178 77.4079 76.2672 77.2624 76.2728 77.1346C76.282 77.0099 76.2561 76.8539 76.1951 76.6665C76.1376 76.4822 76.0416 76.2382 75.9073 75.9345L73.317 70.1818Z" fill="white"/>
<path d="M66.4607 82.8393C66.8395 83.1664 67.1637 83.3741 67.4333 83.4624C67.7028 83.5507 67.9967 83.4902 68.315 83.2809L68.8984 82.8973L66.4959 79.1725C66.194 78.7044 65.9505 78.4352 65.7653 78.365C65.5761 78.2972 65.3104 78.3364 64.9681 78.4823L64.7801 78.1908L67.3083 76.5285L67.4964 76.82C67.2126 77.0913 67.0728 77.3301 67.0771 77.5363C67.0801 77.749 67.2223 78.0736 67.5037 78.5099L69.9062 82.2347L70.4837 81.855C70.8137 81.638 70.9856 81.3753 70.9993 81.0669C71.0155 80.7625 70.9564 80.3975 70.8218 79.9719L71.3816 79.6038L72.4447 81.252L66.9698 84.8518L65.9067 83.2035L66.4607 82.8393Z" fill="white"/>
<path d="M53.446 82.8336L53.5384 83.1688C53.2875 83.3179 53.1268 83.4762 53.0561 83.6434C52.9822 83.8166 53.0056 84.122 53.1263 84.5598L54.0961 88.0758C54.2143 88.5044 54.35 88.7758 54.5032 88.89C54.6531 89.01 54.8711 89.0593 55.1572 89.0378L55.2496 89.373L52.6345 90.1083L52.542 89.7731C52.8102 89.6338 52.972 89.4704 53.0273 89.2829C53.0794 89.1011 53.0495 88.8074 52.9375 88.4015L51.9678 84.8855C51.8571 84.4842 51.7352 84.2188 51.6021 84.0891C51.4703 83.964 51.244 83.9023 50.9233 83.9041L50.8308 83.5689L53.446 82.8336ZM59.7264 81.0678L59.8188 81.403C59.5479 81.5676 59.3851 81.7362 59.3305 81.9088C59.2726 82.0872 59.3003 82.3817 59.4135 82.7921L60.3832 86.308C60.4977 86.723 60.6276 86.9912 60.773 87.1124C60.9151 87.2395 61.1367 87.2927 61.4375 87.272L61.53 87.6072L58.8742 88.3539L58.7818 88.0187C59.0725 87.8731 59.245 87.7042 59.2991 87.5121C59.3531 87.32 59.3261 87.0279 59.2179 86.6357L58.8651 85.3565C58.3453 85.5715 57.8708 85.7393 57.4417 85.8599C55.8247 86.3146 54.8408 85.9057 54.4899 84.6334C54.3125 83.9904 54.3886 83.4457 54.7181 82.9992C55.0443 82.5586 55.7224 82.1936 56.7521 81.904L59.7264 81.0678ZM58.7199 84.8298L57.9878 82.1757C57.7254 82.2299 57.4383 82.3008 57.1267 82.3884C56.4175 82.5878 55.9747 82.8351 55.7982 83.1304C55.6172 83.427 55.5934 83.817 55.7267 84.3004C55.9757 85.2033 56.6265 85.5068 57.6788 85.211C58.0537 85.1056 58.4007 84.9785 58.7199 84.8298Z" fill="white"/>
<path d="M54.192 48.394L41.466 55.778C40.386 56.404 39 55.646 39 54.384V39.616C39 38.356 40.384 37.596 41.466 38.224L54.192 45.608C54.4377 45.7482 54.6419 45.951 54.7839 46.1956C54.926 46.4403 55.0008 46.7181 55.0008 47.001C55.0008 47.2839 54.926 47.5617 54.7839 47.8064C54.6419 48.051 54.4377 48.2537 54.192 48.394Z" fill="white"/>
<circle cx="45" cy="46" r="28.5" stroke="white"/>
</svg>
