<svg width="16" height="22" viewBox="0 0 16 22" fill="none" xmlns="http://www.w3.org/2000/svg">
<path d="M7.85714 0C3.51951 0 0 3.1679 0 7.07143C0 13.3571 7.85714 22 7.85714 22C7.85714 22 15.7143 13.3571 15.7143 7.07143C15.7143 3.1679 12.1948 0 7.85714 0ZM7.85714 11C7.23554 11 6.62791 10.8157 6.11107 10.4703C5.59422 10.125 5.1914 9.63414 4.95352 9.05986C4.71565 8.48558 4.65341 7.85366 4.77467 7.244C4.89594 6.63435 5.19527 6.07434 5.63481 5.63481C6.07434 5.19527 6.63435 4.89594 7.244 4.77467C7.85366 4.65341 8.48558 4.71565 9.05986 4.95352C9.63414 5.1914 10.125 5.59422 10.4703 6.11107C10.8157 6.62791 11 7.23554 11 7.85714C10.9991 8.6904 10.6677 9.48927 10.0785 10.0785C9.48927 10.6677 8.6904 10.9991 7.85714 11Z" fill="white"/>
</svg>
