<svg width="24" height="24" viewBox="0 0 24 24" fill="none" xmlns="http://www.w3.org/2000/svg">
<path d="M11.8571 1C7.51951 1 4 4.1679 4 8.07143C4 14.3571 11.8571 23 11.8571 23C11.8571 23 19.7143 14.3571 19.7143 8.07143C19.7143 4.1679 16.1948 1 11.8571 1ZM11.8571 12C11.2355 12 10.6279 11.8157 10.1111 11.4703C9.59422 11.125 9.1914 10.6341 8.95352 10.0599C8.71565 9.48558 8.65341 8.85366 8.77467 8.244C8.89594 7.63435 9.19527 7.07434 9.63481 6.63481C10.0743 6.19527 10.6343 5.89594 11.244 5.77467C11.8537 5.65341 12.4856 5.71565 13.0599 5.95352C13.6341 6.1914 14.125 6.59422 14.4703 7.11107C14.8157 7.62791 15 8.23554 15 8.85714C14.9991 9.6904 14.6677 10.4893 14.0785 11.0785C13.4893 11.6677 12.6904 11.9991 11.8571 12Z" fill="#120309"/>
</svg>
