<svg width="44" height="44" viewBox="0 0 44 44" fill="none" xmlns="http://www.w3.org/2000/svg">
<path d="M26.7132 27.5073L28.2862 30.8898C28.2862 30.8898 35.3573 32.3913 35.3573 35.9627C35.3573 38.5 32.2113 38.5 32.2113 38.5H23.833L19.708 36.2083" stroke="#120309" stroke-width="2.75" stroke-linecap="round" stroke-linejoin="round"/>
<path d="M17.2867 27.5073L15.7156 30.8898C15.7156 30.8898 8.64258 32.3913 8.64258 35.9627C8.64258 38.5 11.7886 38.5 11.7886 38.5H15.5836L19.7086 36.2083L24.7502 33" stroke="#120309" stroke-width="2.75" stroke-linecap="round" stroke-linejoin="round"/>
<path d="M5.5 29.1977C5.5 29.1977 9.42883 28.3525 11.7865 27.5073C14.1423 15.6677 21.2117 16.5128 22 16.5128C22.7865 16.5128 29.8577 15.6677 32.2135 27.5073C34.5712 28.3507 38.5 29.1977 38.5 29.1977M22 12.8333C22.9725 12.8333 23.9051 12.447 24.5927 11.7594C25.2804 11.0718 25.6667 10.1391 25.6667 9.16667C25.6667 8.19421 25.2804 7.26158 24.5927 6.57394C23.9051 5.88631 22.9725 5.5 22 5.5C21.0275 5.5 20.0949 5.88631 19.4073 6.57394C18.7196 7.26158 18.3333 8.19421 18.3333 9.16667C18.3333 10.1391 18.7196 11.0718 19.4073 11.7594C20.0949 12.447 21.0275 12.8333 22 12.8333Z" stroke="#120309" stroke-width="2.75" stroke-linecap="round" stroke-linejoin="round"/>
</svg>
