<svg width="21" height="24" viewBox="0 0 21 24" fill="none" xmlns="http://www.w3.org/2000/svg">
<g clip-path="url(#clip0_801_2326)">
<path d="M13.0061 16.6607V19.4866C13.0061 20.0848 12.832 20.3839 12.4838 20.3839C12.2785 20.3839 12.0776 20.2857 11.8811 20.0893V16.058C12.0776 15.8616 12.2785 15.7634 12.4838 15.7634C12.832 15.7634 13.0061 16.0625 13.0061 16.6607ZM17.5329 16.6741V17.2902H16.3276V16.6741C16.3276 16.067 16.5285 15.7634 16.9302 15.7634C17.332 15.7634 17.5329 16.067 17.5329 16.6741ZM4.59542 13.7545H6.02846V12.4955H1.84989V13.7545H3.25614V21.375H4.59542V13.7545ZM8.45257 21.375H9.64453V14.7589H8.45257V19.8214C8.18471 20.1964 7.93025 20.3839 7.68917 20.3839C7.52846 20.3839 7.43471 20.2902 7.40792 20.1027C7.399 20.0759 7.39453 19.9196 7.39453 19.6339V14.7589H6.20257V19.9955C6.20257 20.433 6.23828 20.7589 6.30971 20.9732C6.41685 21.3036 6.67578 21.4688 7.0865 21.4688C7.51507 21.4688 7.97042 21.1964 8.45257 20.6518V21.375ZM14.1981 19.3929V16.7545C14.1981 16.1027 14.1579 15.6607 14.0776 15.4286C13.9258 14.9286 13.6088 14.6786 13.1267 14.6786C12.6802 14.6786 12.2651 14.9196 11.8811 15.4018V12.4955H10.6892V21.375H11.8811V20.7321C12.2829 21.2232 12.6981 21.4688 13.1267 21.4688C13.6088 21.4688 13.9258 21.2232 14.0776 20.7321C14.1579 20.4911 14.1981 20.0446 14.1981 19.3929ZM18.7249 19.2589V19.0848H17.5061C17.5061 19.5402 17.4972 19.8125 17.4794 19.9018C17.4169 20.2232 17.2383 20.3839 16.9436 20.3839C16.5329 20.3839 16.3276 20.0759 16.3276 19.4598V18.2946H18.7249V16.9152C18.7249 16.2098 18.6044 15.692 18.3633 15.3616C18.0151 14.9062 17.5419 14.6786 16.9436 14.6786C16.3365 14.6786 15.8588 14.9062 15.5106 15.3616C15.2606 15.692 15.1356 16.2098 15.1356 16.9152V19.2321C15.1356 19.9375 15.2651 20.4554 15.524 20.7857C15.8722 21.2411 16.3544 21.4688 16.9704 21.4688C17.6133 21.4688 18.0954 21.2321 18.4169 20.7589C18.5776 20.5179 18.6713 20.2768 18.6981 20.0357C18.716 19.9554 18.7249 19.6964 18.7249 19.2589ZM10.582 7.03125V4.21875C10.582 3.60268 10.3901 3.29464 10.0061 3.29464C9.62221 3.29464 9.43025 3.60268 9.43025 4.21875V7.03125C9.43025 7.65625 9.62221 7.96875 10.0061 7.96875C10.3901 7.96875 10.582 7.65625 10.582 7.03125ZM20.2115 17.0893C20.2115 19.1786 20.0954 20.7411 19.8633 21.7768C19.7383 22.3036 19.4794 22.7455 19.0865 23.1027C18.6936 23.4598 18.2383 23.6652 17.7204 23.7188C16.0776 23.9062 13.5999 24 10.2874 24C6.97489 24 4.49721 23.9062 2.85435 23.7188C2.3365 23.6652 1.87891 23.4598 1.48158 23.1027C1.08426 22.7455 0.827567 22.3036 0.711496 21.7768C0.479353 20.7768 0.363281 19.2143 0.363281 17.0893C0.363281 15 0.479353 13.4375 0.711496 12.4018C0.836496 11.875 1.09542 11.433 1.48828 11.0759C1.88114 10.7188 2.34096 10.5089 2.86775 10.4464C4.50167 10.2679 6.97489 10.1786 10.2874 10.1786C13.5999 10.1786 16.0776 10.2679 17.7204 10.4464C18.2383 10.5089 18.6959 10.7188 19.0932 11.0759C19.4905 11.433 19.7472 11.875 19.8633 12.4018C20.0954 13.4018 20.2115 14.9643 20.2115 17.0893ZM6.84542 0H8.2115L6.59096 5.34375V8.97321H5.25167V5.34375C5.12667 4.68304 4.85435 3.73661 4.43471 2.50446C4.10435 1.58482 3.81417 0.75 3.56417 0H4.98382L5.93471 3.52232L6.84542 0ZM11.8008 4.45982V6.80357C11.8008 7.52679 11.6758 8.05357 11.4258 8.38393C11.0865 8.83929 10.6133 9.06696 10.0061 9.06696C9.40792 9.06696 8.93917 8.83929 8.59989 8.38393C8.34989 8.04464 8.22489 7.51786 8.22489 6.80357V4.45982C8.22489 3.74554 8.34989 3.22321 8.59989 2.89286C8.93917 2.4375 9.40792 2.20982 10.0061 2.20982C10.6133 2.20982 11.0865 2.4375 11.4258 2.89286C11.6758 3.22321 11.8008 3.74554 11.8008 4.45982ZM16.2874 2.29018V8.97321H15.0686V8.23661C14.5954 8.79018 14.1356 9.06696 13.6892 9.06696C13.2785 9.06696 13.0151 8.90179 12.899 8.57143C12.8276 8.35714 12.7919 8.02232 12.7919 7.56696V2.29018H14.0106V7.20536C14.0106 7.5 14.0151 7.65625 14.024 7.67411C14.0508 7.87054 14.1445 7.96875 14.3052 7.96875C14.5463 7.96875 14.8008 7.77679 15.0686 7.39286V2.29018H16.2874Z" fill="white"/>
</g>
<defs>
<clipPath id="clip0_801_2326">
<rect width="20.5725" height="24" fill="white"/>
</clipPath>
</defs>
</svg>
